<svg xmlns="http://www.w3.org/2000/svg" viewBox="0 0 98.49 162.57"><defs><style>.cls-1,.cls-2,.cls-3,.cls-5,.cls-6{fill:none;}.cls-1,.cls-2,.cls-3,.cls-4{stroke:#020202;stroke-miterlimit:10;}.cls-1,.cls-5,.cls-6{stroke-linecap:round;}.cls-1,.cls-2,.cls-4,.cls-5{stroke-width:4px;}.cls-3,.cls-6{stroke-width:3px;}.cls-4{fill:#020202;}.cls-5{stroke:#090a0a;}.cls-5,.cls-6{stroke-linejoin:round;}.cls-6{stroke:#000;}</style></defs><g id="レイヤー_2" data-name="レイヤー 2"><g id="レイヤー_2-2" data-name="レイヤー 2"><path class="cls-1" d="M79,91.27c.23,3.08,1.4,22.82-13,35.83-4.76,4.29-15.73,5.31-15.47,8.15.15,1.74,1.13.82,4.4,5.21,1.63,2.19,2.76,4.64,1.24,6.92a10.65,10.65,0,0,1-3.83,3.22c-5.88,2.44-9.73,10.64-10.83,9.93-.78-.49.2-5.25,1.67-6.8a12,12,0,0,1,3-2.37c.37-.26,2.81-2.15,2.74-4.25-.07-1.93-1.43-2.29-4.51-5.29-.86-.85-5.65-5.52-4.68-9.71.59-2.56,2.78-2.61,3.06-4.87.36-2.95-3.16-4.77-5.74-8.23-1.85-2.5-3.77-6.61-3.57-13.5"/><ellipse class="cls-2" cx="53.51" cy="40.67" rx="23.02" ry="22.95" transform="translate(-2.09 2.9) rotate(-3.05)"/><path class="cls-3" d="M70.05,23.32A11.66,11.66,0,0,0,61.36,9.45C55,8,48.19,12.17,46.84,18.1"/><path class="cls-3" d="M51.47,17.39c.66-2.9,4.52-4.5,8.62-3.58s6.89,4,6.23,6.93"/><path class="cls-4" d="M63,9.06s6.71-13.38,17.51-3.3a10.88,10.88,0,0,1,3,4.9,49,49,0,0,1,1.86,9.58,6.27,6.27,0,0,0,1.37,3.52l.81,1S80,26.64,77.3,22.54c0,0-1.65-7.45-6.56-4.61"/><path class="cls-5" d="M80,75.84h0c-.24,3.24-4.81,4.57-9.58,2.79L63,75.86"/><path class="cls-5" d="M72.4,57.12s33.71,13,21.37,28.77c0,0-12.51,10.91-34.35-.92"/><line class="cls-6" x1="39.28" y1="76.94" x2="21.69" y2="77.22"/><path class="cls-6" d="M22.54,75.82l.06-.19c0-.15,0-.23,0-.23s0,0,0,0a5.7,5.7,0,0,1,5.81-4.17A7.25,7.25,0,0,1,28,68.79c0-2.56,1.09-4.66,2.54-4.68s2.65,2,2.69,4.59a7.66,7.66,0,0,1-.36,2.48c1.2,0,6.08-.26,6.39,5.76a9.73,9.73,0,0,1,5.24,2.81,8.85,8.85,0,0,1,2.42,5.88c.25,8.41-10.4,10.49-10.4,10.49l-.29,0a2.69,2.69,0,0,1-.15,2.29c3.39.38,5.7,1.17,5.72,2.13,0,1.4-4.87,2.61-10.92,2.7s-11-1-11-2.35c0-1,2.32-1.85,5.77-2.33a2.33,2.33,0,0,1-.23-2.6h.31a13.61,13.61,0,0,1-8-5.76C13.11,83.56,1.5,78.09,1.5,78.09,19,82.35,22,77.36,22.54,75.82Z"/><path class="cls-6" d="M36.25,96.16S28.63,97,25.8,96"/><path class="cls-6" d="M36.1,98.45a14.13,14.13,0,0,1-10.42.15"/><path class="cls-6" d="M44.6,79.19s6.79-7.22,15.55-4.3a5.16,5.16,0,0,1,3.29,3.5c.77,2.71-.36,6.56-11.84,7.85,0,0-2.49.24.11,1.32,0,0,2.81,3.64-5.68,2C46,89.61,49.56,83.73,44.6,79.19Z"/><path class="cls-6" d="M46.45,80s10.2-5,10.69-.79c.1.86-.3,1.65-.83,1.78-2.14.54-8.75,2.32-9.15,3.86"/><path class="cls-5" d="M35.56,55s-20.62,4.32-22.7,22.71"/></g></g></svg>