<svg xmlns="http://www.w3.org/2000/svg" viewBox="0 0 137.49 21.44"><defs><style>.cls-1{stroke:#020202;stroke-miterlimit:10;}</style></defs><g id="レイヤー_2" data-name="レイヤー 2"><g id="レイヤー_2-2" data-name="レイヤー 2"><path class="cls-1" d="M8,10.69c0-.39,0-.95,0-1.54-.33.09-.66.18-1,.25a6.58,6.58,0,0,1-1.69.23,3.31,3.31,0,0,1-2.15-.81A4,4,0,0,1,2,7.31a.47.47,0,0,1-.05-.16c0-.1.05-.17.15-.17a.31.31,0,0,1,.2.1,4.4,4.4,0,0,0,.81.41,3,3,0,0,0,1,.16A8.16,8.16,0,0,0,6,7.28a15.16,15.16,0,0,0,2-.78c0-1.1.08-2.44.06-3.29,0-.39,0-.55-.41-.64A3.35,3.35,0,0,0,7,2.5c-.15,0-.26-.07-.26-.16a.53.53,0,0,1,.11-.21,2.21,2.21,0,0,1,1.49-.85,4.25,4.25,0,0,1,1.59.44c.63.3,1,.57,1,1.08a1.36,1.36,0,0,1-.23.78,5.48,5.48,0,0,0-.33.94,7.51,7.51,0,0,0-.18.92c.13-.09.28-.16.41-.25.56-.34.68-.48,1.09-.48a3,3,0,0,1,1.11.3c.51.23.86.55.86,1s-.3.78-1,1.22A19.94,19.94,0,0,1,9.94,8.43c0,.85-.08,1.66-.08,2.16s0,.76,0,1.11A12.16,12.16,0,0,1,16,10a7.07,7.07,0,0,1,4.68,1.51,4.36,4.36,0,0,1,1.62,3.32,3.69,3.69,0,0,1-1.5,2.92,6,6,0,0,1-3.71,1.15,5.52,5.52,0,0,1-3.77-1.34,4.72,4.72,0,0,1-1.6-3.29.14.14,0,0,1,.13-.18s.1.05.13.12a4.32,4.32,0,0,0,1.64,1.9,4.46,4.46,0,0,0,2.35.65,3.93,3.93,0,0,0,2.15-.67,2.54,2.54,0,0,0,1-2.18A2.9,2.9,0,0,0,18,11.63a4.15,4.15,0,0,0-2.41-.74,9.87,9.87,0,0,0-5.66,2.17,24.18,24.18,0,0,0,.3,3.17,9.42,9.42,0,0,1,.23,1.84,2.14,2.14,0,0,1-.63,1.63,2.31,2.31,0,0,1-1.57.67,1,1,0,0,1-1.14-.83,1.83,1.83,0,0,0-.68-.94,11.42,11.42,0,0,0-1.52-.85,5.26,5.26,0,0,0-.46.53A2,2,0,0,1,3,18.92a4.5,4.5,0,0,1-1.59-.23A1.36,1.36,0,0,1,.5,17.54a1.12,1.12,0,0,1,1.09-1.17c.4-.07,1-.14,1.34-.19a4.36,4.36,0,0,0,1.36-.73C5.51,14.6,6.75,13.61,8,12.83ZM6.72,17.63a6.6,6.6,0,0,0,1,.12c.38,0,.38-.1.36-.65S8.06,15.58,8,14.57a28.76,28.76,0,0,0-2.12,2c-.2.23-.43.48-.63.73C5.74,17.47,6.37,17.56,6.72,17.63ZM15.91,6.92a.2.2,0,0,1,.1-.17,6.63,6.63,0,0,1,1.39-.92,4.22,4.22,0,0,1,1.87-.43,5,5,0,0,1,2.86,1,2.59,2.59,0,0,1,1.19,2A1.5,1.5,0,0,1,21.65,10c-.86,0-1.24-.53-1.59-1.26A4.54,4.54,0,0,0,19,7.19a2.15,2.15,0,0,0-1.51-.57A5,5,0,0,0,16.13,7C16,7.05,15.91,7,15.91,6.92Z"/><path class="cls-1" d="M31.62,11.72a13.18,13.18,0,0,0-1.06.92,2,2,0,0,1-1.37.51,4.8,4.8,0,0,1-2-.69A3.1,3.1,0,0,1,26,11.33a1.67,1.67,0,0,1-.15-.71c0-.23,0-.3.15-.3a.42.42,0,0,1,.28.11,2.43,2.43,0,0,0,1.24.44A8.17,8.17,0,0,0,29.77,10c.48-.25,1-.53,1.49-.81a9.69,9.69,0,0,0-1.06-1,8.92,8.92,0,0,0-.78-.64,1.18,1.18,0,0,1-.53-1.08,2.59,2.59,0,0,1,.68-1.54A2.85,2.85,0,0,1,32.4,4c.1,0,.15.07.15.14s0,.09-.12.11a1.59,1.59,0,0,0-.56.3,1.53,1.53,0,0,0-.55,1.17,2.74,2.74,0,0,0,.75,1.54c.33.39.61.74.89,1C34.45,7.54,36,6.8,37.59,6.13a1.57,1.57,0,0,1-1-.39,1.87,1.87,0,0,0-.84-.62A16.25,16.25,0,0,0,34,4.46a.15.15,0,0,1-.12-.14.12.12,0,0,1,.15-.12,14.75,14.75,0,0,0,2.3.09c.4,0,.53-.13.61-.41a1.41,1.41,0,0,0-.26-.74,3.78,3.78,0,0,0-1.59-1.33c-.13-.05-.18-.11-.18-.18s.1-.16.58-.16a5.51,5.51,0,0,1,3.32,1,2.3,2.3,0,0,1,1,2,1.52,1.52,0,0,1-.46.94,11.45,11.45,0,0,1,3.44-.57,6.88,6.88,0,0,1,3.75,1,4.3,4.3,0,0,1,2.22,3.36,3.67,3.67,0,0,1-2,3.22,9.63,9.63,0,0,1-4.45.88A8.18,8.18,0,0,1,39,12.55,7.42,7.42,0,0,1,36.58,11a.19.19,0,0,1-.08-.16c0-.07.08-.11.2-.07a11.56,11.56,0,0,0,3.88.74,6.6,6.6,0,0,0,3.59-.81,2.86,2.86,0,0,0,1.46-2.41,2.5,2.5,0,0,0-.78-1.91,2.87,2.87,0,0,0-1.92-.64A9.73,9.73,0,0,0,38.7,7.15c-1.26.66-2.86,1.7-4.4,2.73l2.05,2.39A19,19,0,0,1,39,16.21a5.77,5.77,0,0,1,.61,2.34,1.73,1.73,0,0,1-.66,1.4,1.91,1.91,0,0,1-1.29.42,1.56,1.56,0,0,1-1-.32,2.26,2.26,0,0,1-.48-1.22c0-.37-.18-1.11-.31-1.64a12.09,12.09,0,0,0-1.46-3.79A26.84,26.84,0,0,0,32.68,11Z"/><path class="cls-1" d="M59.7,3.72A5.54,5.54,0,0,0,60,2.5c0-.21,0-.32-.31-.44a2.6,2.6,0,0,0-1-.18c-.13,0-.18,0-.18-.12a.35.35,0,0,1,.12-.22A2.57,2.57,0,0,1,60.21,1a3.93,3.93,0,0,1,1.84.53c.61.32,1,.64,1,1.15a1.1,1.1,0,0,1-.5.8,4.18,4.18,0,0,0-.71,1c-.15.27-.56.92-1.06,1.93a9.39,9.39,0,0,1,1.61-.14,3.19,3.19,0,0,1,2.31.92A5,5,0,0,1,66,10.64a19.32,19.32,0,0,1-.4,3.82A10.54,10.54,0,0,1,64,18.21a4.49,4.49,0,0,1-3.47,1.95A2.66,2.66,0,0,1,59.42,20a1.24,1.24,0,0,1-.53-1.15,2.2,2.2,0,0,0-.35-1.36c-.31-.46-.84-1.1-1.27-1.61a.27.27,0,0,1-.07-.16.16.16,0,0,1,.18-.16.27.27,0,0,1,.17.07c.61.37,1.37.85,1.85,1.08a3.4,3.4,0,0,0,1.29.32c.4,0,.76-.13,1.31-.87a10,10,0,0,0,1.42-3.29,15.32,15.32,0,0,0,.48-3.7c0-1.24-.3-1.84-1.41-1.84a10,10,0,0,0-2.43.53c-.59,1.19-1.39,2.94-2.15,4.76a53.33,53.33,0,0,0-2.26,6.23,3.68,3.68,0,0,1-.53,1.36,1.09,1.09,0,0,1-.83.39,1.36,1.36,0,0,1-1.17-.46,2.25,2.25,0,0,1-.48-1.34,2.68,2.68,0,0,1,.46-1.63c.28-.39.45-.73.71-1.15.68-1.22,1.36-2.55,2-3.86s1.21-2.39,1.69-3.43c-.28.14-.55.28-.86.42a7.5,7.5,0,0,0-1.19.62,2,2,0,0,1-1.08.36,2.32,2.32,0,0,1-1.52-.68,3.79,3.79,0,0,1-1-1.29,2.37,2.37,0,0,1-.15-.69c0-.3.05-.44.21-.44a.28.28,0,0,1,.2.09,4,4,0,0,0,.73.53,1.61,1.61,0,0,0,.74.21,14,14,0,0,0,1.64-.3l3.19-.74A29.8,29.8,0,0,0,59.7,3.72ZM70.08,9.51a4.38,4.38,0,0,0-1.14-2.09,1.71,1.71,0,0,0-1.34-.5c-.11,0-.28,0-.46,0s-.18,0-.18-.11,0-.12.13-.16a4.5,4.5,0,0,1,1.67-.4,4.68,4.68,0,0,1,2.68.81A6,6,0,0,1,73,8.66a4.65,4.65,0,0,1,.85,2.6,1.8,1.8,0,0,1-1.82,2,1.58,1.58,0,0,1-1.57-1.5A11.85,11.85,0,0,0,70.08,9.51Z"/><path class="cls-1" d="M82.88,11.19a9.08,9.08,0,0,1,4.7-1.7,3.91,3.91,0,0,1,2.36.67,2.83,2.83,0,0,1,1.26,2.46A18.21,18.21,0,0,1,91,14.8a16,16,0,0,0-.2,2.07c0,.65.22.88,1.13.88a6.27,6.27,0,0,0,3.8-1.34A10.29,10.29,0,0,0,99,11.47a.15.15,0,0,1,.15-.12c.08,0,.15.07.15.19-.25,2.48-1,5.06-2.5,6.64a7.11,7.11,0,0,1-5,2.23,4.49,4.49,0,0,1-2.88-.73,2.83,2.83,0,0,1-1-2.32,15.36,15.36,0,0,1,.25-2.58,19.78,19.78,0,0,0,.3-2.83A1.37,1.37,0,0,0,87,10.39a6.62,6.62,0,0,0-3.44,1.81,10.46,10.46,0,0,0-2.38,3.32A11,11,0,0,0,80,19.17a1.82,1.82,0,0,1-.43,1.08,1.26,1.26,0,0,1-1,.39,1.82,1.82,0,0,1-1.14-.36,2.35,2.35,0,0,1-.76-1.75,4,4,0,0,1,.18-1.22,5,5,0,0,1,.68-1.22c.25-.37.53-.8.88-1.36,1.07-1.67,2-3.12,2.79-4.41C82.73,8,84.4,5.49,85.46,3.83a4.88,4.88,0,0,0,.86-1.61A.86.86,0,0,0,86,1.65a2.35,2.35,0,0,0-.73-.46c-.11-.05-.16-.11-.16-.16s.05-.12.16-.16a1.8,1.8,0,0,1,.68-.09,3,3,0,0,1,.91.11,5.19,5.19,0,0,1,1.57.85,2.56,2.56,0,0,1,1.16,1.73,1.06,1.06,0,0,1-.71.89,4.51,4.51,0,0,0-1,.67,37.36,37.36,0,0,0-3.44,4c-.61.75-1.12,1.47-1.57,2.13Z"/><path class="cls-1" d="M113.44,4.13a1.8,1.8,0,0,1,1.16-.41,3.18,3.18,0,0,1,1.22.3,1.36,1.36,0,0,1,.88,1.08c0,.41-.22.73-1,1.19a20.34,20.34,0,0,1-3,1.34L115.26,11c.28.36.51.69.71,1a2.23,2.23,0,0,1,.43,1.2,2.18,2.18,0,0,1-.48,1.4,1.82,1.82,0,0,1-1.44.76,1.21,1.21,0,0,1-1.17-.55,1.76,1.76,0,0,0-1.09-.85,29.17,29.17,0,0,0-3.74-.81.17.17,0,0,1-.15-.13.14.14,0,0,1,.15-.14,30.33,30.33,0,0,0,3.54-.23c.71-.12,1-.16,1-.53a4.5,4.5,0,0,0-.56-1.36c-.4-.73-1-1.58-1.59-2.46a17.28,17.28,0,0,1-5,1,4.87,4.87,0,0,1-3.16-1.13,7,7,0,0,1-1.32-1.51.35.35,0,0,1,0-.19.12.12,0,0,1,.13-.14.26.26,0,0,1,.18,0,7.3,7.3,0,0,0,1.24.58,3.83,3.83,0,0,0,1.41.23,11.67,11.67,0,0,0,2.71-.4,20,20,0,0,0,2.23-.69c-.69-.89-1.37-1.77-2-2.59a3.09,3.09,0,0,0-1.62-1.22,2.57,2.57,0,0,0-1.09.11c-.18.05-.3,0-.3-.09a.78.78,0,0,1,0-.14,3.33,3.33,0,0,1,.6-.85,2.49,2.49,0,0,1,1.65-.55,5.11,5.11,0,0,1,1.49.25,1.26,1.26,0,0,1,.94,1,3.28,3.28,0,0,0,.63,1.21l1.52,2.19A22.86,22.86,0,0,0,113.44,4.13Zm-9,9.25c.08,0,.13,0,.13.11a.23.23,0,0,1-.08.16,4.13,4.13,0,0,0-.68.95,2,2,0,0,0-.3,1,1.82,1.82,0,0,0,1.36,1.73,9.31,9.31,0,0,0,3.19.43,15.88,15.88,0,0,0,2.2-.18,11.55,11.55,0,0,0,1.27-.28,2.94,2.94,0,0,1,1.06-.16,3.22,3.22,0,0,1,1.62.41,1.44,1.44,0,0,1,.91,1.25c0,.78-.61,1.1-1.8,1.31a24.28,24.28,0,0,1-3.92.34,12,12,0,0,1-5.21-.89,3.33,3.33,0,0,1-2.1-2.92,3.25,3.25,0,0,1,.73-2,5.26,5.26,0,0,1,1.47-1.29A.42.42,0,0,1,104.43,13.38Z"/><path class="cls-1" d="M128.9,7.88c0,.51,0,1,0,1.45A18.79,18.79,0,0,0,132,8.23a3.58,3.58,0,0,1,1.24-.35,3.41,3.41,0,0,1,1.09.23c.45.21.88.48.88,1.06s-.63.9-1.64,1.24a44.56,44.56,0,0,1-4.45,1.15,23.7,23.7,0,0,0,.78,3.86.56.56,0,0,1,.05.23,20.61,20.61,0,0,1,5.19,1.73,4.92,4.92,0,0,1,.63.41c.83.69,1.21,1.22,1.21,2a1.12,1.12,0,0,1-1.21,1.19c-.51,0-.86,0-2-.94a14,14,0,0,0-3.65-2.14,2.81,2.81,0,0,1-1.79,2.23,9.59,9.59,0,0,1-3.82.76c-2.68,0-4.38-1.1-4.38-2.57a2.36,2.36,0,0,1,1.44-2.3,7.74,7.74,0,0,1,3.77-.76c.68,0,1.42,0,2.08.07,0-.56-.11-1.08-.13-1.64s-.1-1.12-.13-1.7a19.92,19.92,0,0,1-3.41.32,3.57,3.57,0,0,1-2.51-.82,4.32,4.32,0,0,1-1.21-1.71.91.91,0,0,1-.08-.23.16.16,0,0,1,.15-.16.26.26,0,0,1,.16.07,5.14,5.14,0,0,0,1.16.71,3.72,3.72,0,0,0,1.59.26,15.94,15.94,0,0,0,2.31-.26c.55-.09,1.14-.2,1.69-.34,0-.48,0-1,0-1.47s0-1,0-1.52a14.59,14.59,0,0,1-2.43.3,2.82,2.82,0,0,1-2.1-.69,3.5,3.5,0,0,1-1-1.49c0-.14,0-.23.1-.23a.24.24,0,0,1,.15.06,2.92,2.92,0,0,0,1,.49,3.7,3.7,0,0,0,1,.14,11.7,11.7,0,0,0,1.79-.24c.48-.09,1-.22,1.44-.36,0-.74,0-1.41,0-1.82,0-1,0-1.06-.35-1.24a2.7,2.7,0,0,0-1.06-.18c-.18,0-.26-.07-.26-.17a.36.36,0,0,1,.16-.27,2.32,2.32,0,0,1,1.46-.6,4.2,4.2,0,0,1,1.77.44c.54.25,1,.62,1,1.17a1.22,1.22,0,0,1-.33.74,2.59,2.59,0,0,0-.3,1.26,6.55,6.55,0,0,0,1.06-.51,1.67,1.67,0,0,1,.91-.27,2.75,2.75,0,0,1,1.09.3c.38.18.71.48.71.83,0,.64-.61.85-1.62,1.24a22.7,22.7,0,0,1-2.25.71Zm-5,8.81c-1.59,0-2.93.57-2.93,1.4,0,.58.73,1,2.6,1a6.53,6.53,0,0,0,3-.73c.66-.37,1-.74,1-1.29A17.76,17.76,0,0,0,123.91,16.69Z"/></g></g></svg>